Coordinates
version=1
nRows=17
nColumns=36
inDegrees=yes

Units are S.I. units (second, meters, Newtons, ...)
If the header above contains a line with 'inDegrees', this indicates whether rotational values are in degrees (yes) or radians (no).

endheader
time	pelvis_tilt	pelvis_list	pelvis_rotation	pelvis_tx	pelvis_ty	pelvis_tz	hip_flexion_r	hip_adduction_r	hip_rotation_r	knee_angle_r	knee_angle_r_beta	ankle_angle_r	subtalar_angle_r	mtp_angle_r	hip_flexion_l	hip_adduction_l	hip_rotation_l	knee_angle_l	knee_angle_l_beta	ankle_angle_l	subtalar_angle_l	mtp_angle_l	lumbar_extension	lumbar_bending	lumbar_rotation	arm_flex_r	arm_add_r	arm_rot_r	elbow_flex_r	pro_sup_r	arm_flex_l	arm_add_l	arm_rot_l	elbow_flex_l	pro_sup_l
      1.12000000	    -15.50037080	     -0.49039017	      4.86760975	     -0.61751262	      1.59634410	     -0.57371521	     16.65789248	     -0.63125872	    -10.13247839	      4.12571588	      0.07200733	    -37.00199199	     -0.18496798	     -5.97237807	     22.72381283	     -0.13958901	     -3.08952302	     13.71697335	      0.23940635	    -20.31631203	     -4.27202347	     -5.97237807	     -3.07931510	      4.74233858	      4.40688913	    -49.29566299	    -32.28845922	    -82.78126033	    111.33778122	    111.39597371	      0.47095811	    -67.69153797	    -35.40699503	    108.16334168	    112.63067540
      1.13000000	    -15.63233888	     -0.52972668	      4.81929549	     -0.60963147	      1.59324384	     -0.57258580	     17.40489546	     -0.52624107	     -9.63521153	      3.99826664	      0.06978292	    -36.74075735	     -1.03173805	     -6.51272234	     23.35898047	     -0.14479218	     -2.73346047	     13.15900983	      0.22966805	    -20.21064871	     -4.30032916	     -6.51272234	     -3.55632300	      4.81983538	      3.15051390	    -49.61650565	    -33.04912592	    -81.76627677	    108.58604288	    111.58247771	    -11.41839988	    -68.65621987	    -47.66952499	    104.75999486	    113.89080725
      1.14000000	    -15.69796610	     -0.58380724	      4.82888040	     -0.60172775	      1.58910743	     -0.57161331	     18.06347215	     -0.43041053	     -9.32272734	      3.84446437	      0.06709856	    -36.30816546	     -1.39842921	     -6.52569238	     23.91122443	     -0.15157316	     -2.29583721	     12.59753614	      0.21986848	    -20.08489965	     -4.08625595	     -6.52569238	     -3.86968873	      5.11495077	      3.99351343	    -52.37484884	    -31.49729485	    -83.18125298	    106.09954980	    111.24658211	    -12.96838438	    -69.74986101	    -49.27411320	     99.23787302	    113.21464721
      1.15000000	    -15.79750828	     -0.63303457	      4.80333123	     -0.59380208	      1.58389365	     -0.57068587	     18.77616480	     -0.34032522	     -9.08892062	      3.70861019	      0.06472746	    -35.90729252	     -1.71320692	     -6.53385540	     24.52513536	     -0.17108562	     -1.92225341	     12.12642107	      0.21164597	    -20.04494758	     -3.84706070	     -6.53385540	     -4.13801171	      5.44113641	      4.80272589	    -55.03286898	    -30.04979568	    -84.52911632	    103.29975599	    110.94681353	    -14.33675616	    -70.62222260	    -51.08614850	     93.32885239	    112.59229217
      1.16000000	    -16.28191684	     -0.66615756	      4.75376165	     -0.58554269	      1.57700973	     -0.56933988	     19.87674209	     -0.24092836	     -8.69752093	      3.57426914	      0.06238276	    -35.47541382	     -2.45817762	     -6.90295333	     25.54048170	     -0.19185075	     -1.67799271	     11.69717235	      0.20415417	    -19.97826154	     -3.55652287	     -6.90295333	     -4.58377216	      4.94046102	     -0.78230148	    -51.21833365	    -35.18301123	    -78.88564358	     99.86685552	    112.23496847	    -47.15873294	    -66.31777712	    -84.12018562	     91.91462865	    113.59214733
      1.17000000	    -16.57196470	     -0.74464201	      4.76146446	     -0.57746294	      1.56932644	     -0.56850614	     20.79002601	     -0.15594126	     -8.60560635	      3.49318304	      0.06096755	    -34.90831895	     -2.65515726	     -6.91086105	     26.34588183	     -0.21598185	     -1.35210148	     11.24198551	      0.19620966	    -19.91590106	     -3.41315205	     -6.91086105	     -4.58038862	      5.27490648	     -0.00915269	    -54.17577982	    -33.59084894	    -80.64819315	     97.23227545	    111.90120268	    -49.37968128	    -66.93000118	    -86.73756829	     85.58531144	    112.84195609
      1.18000000	    -16.97350919	     -0.69894323	      4.60919282	     -0.56940293	      1.56037937	     -0.56722331	     21.88155988	     -0.14871269	     -8.46832531	      3.49175536	      0.06094263	    -34.19535468	     -2.89609770	     -7.00381442	     27.26109363	     -0.22991833	     -1.27558359	     10.85977916	      0.18953890	    -19.65941079	     -2.86531712	     -7.00381442	     -4.85752077	      4.79668499	     -2.68716268	    -52.88466377	    -35.85633728	    -78.22446552	     93.40467394	    112.18268823	    -63.08904842	    -62.33885421	   -100.31623582	     81.63700135	    113.19217619
      1.19000000	    -17.34994171	     -0.71678702	      4.51066322	     -0.56128648	      1.55056545	     -0.56610086	     22.91214599	     -0.11697850	     -8.47590872	      3.45985507	      0.06038586	    -33.44013700	     -2.83049482	     -7.04998150	     28.11730862	     -0.29059532	     -1.09742039	     10.41088121	      0.18170416	    -19.39493218	     -2.26280125	     -7.04998150	     -4.98300399	      4.72106606	     -3.57699425	    -53.67247658	    -36.08515709	    -78.17782627	     90.04072388	    112.22844582	    -69.21263220	    -59.80505885	   -106.36535504	     76.26956335	    112.87648855
      1.20000000	    -17.77919523	     -0.73409313	      4.39974518	     -0.55312937	      1.53965703	     -0.56504047	     23.99085249	     -0.09959533	     -8.46583925	      3.42974373	      0.05986032	    -32.65036311	     -2.66951320	     -7.08478954	     28.99324183	     -0.34704237	     -0.92563626	      9.91226108	      0.17300159	    -19.21065734	     -1.79098039	     -7.08478954	     -5.03613118	      4.66632266	     -4.38238773	    -54.56739430	    -36.14142690	    -78.37943728	     86.67712705	    112.20435444	    -74.13978253	    -57.13170359	   -111.04016673	     70.83960804	    112.58850948
      1.21000000	    -18.16906989	     -0.74301446	      4.25225707	     -0.54488516	      1.52774518	     -0.56403773	     25.02280495	     -0.07725528	     -8.40185867	      3.39705008	      0.05928971	    -31.87800333	     -2.49429999	     -7.17065181	     29.78797430	     -0.43170733	     -0.80478224	      9.37990552	      0.16371023	    -19.07926236	     -1.28249188	     -7.17065181	     -5.13494512	      4.53460067	     -5.31117211	    -55.23649184	    -36.35203251	    -78.43257702	     83.17728077	    111.97544562	    -78.60475191	    -53.90695058	   -114.81678194	     65.57495506	    112.00426792
      1.22000000	    -18.43462303	     -0.80167224	      4.07604919	     -0.53644357	      1.51501812	     -0.56320949	     25.89708564	      0.01059946	     -8.23769273	      3.35361391	      0.05853160	    -31.17905176	     -2.41962882	     -7.22053083	     30.41616994	     -0.60609414	     -0.78135215	      8.82973088	      0.15410788	    -18.91981075	     -0.52136898	     -7.22053083	     -5.37208966	      4.50332485	     -6.01233507	    -56.11305292	    -36.29474431	    -78.88432349	     79.64926249	    112.19387884	    -82.18742430	    -50.71727875	   -117.27426042	     60.27439729	    111.53152076
      1.23000000	    -18.61814266	     -0.88325421	      3.89101221	     -0.52797959	      1.50145339	     -0.56251628	     26.67714247	      0.09864924	     -8.22123680	      3.32969653	      0.05811417	    -30.50891903	     -2.20488632	     -7.26456894	     30.95223249	     -0.82179116	     -0.81455519	      8.30334576	      0.14492072	    -18.85695204	      0.28210959	     -7.26456894	     -5.74002417	      4.55951900	     -6.57739231	    -57.21127297	    -35.98784473	    -79.55478504	     76.29077106	    112.48059333	    -85.20607813	    -47.36637429	   -118.44553786	     55.26609587	    111.03839411
      1.24000000	    -18.79949736	     -1.00569074	      3.71722460	     -0.51957728	      1.48693951	     -0.56190257	     27.43303625	      0.20517551	     -8.22175792	      3.30204559	      0.05763157	    -30.10399449	     -2.10277511	     -7.30720778	     31.47594123	     -1.04055141	     -0.68194466	      7.76211848	      0.13547452	    -19.06882388	      0.69760289	     -7.30720778	     -6.11442764	      4.61526699	     -7.22400130	    -58.30615266	    -35.68107724	    -79.96590299	     73.03751694	    111.31179227	    -87.76143369	    -43.50026594	   -118.42347135	     51.30589624	    109.04129296
      1.25000000	    -18.92975463	     -1.14534898	      3.55449053	     -0.51097913	      1.47148420	     -0.56146064	     28.12358766	      0.29071051	     -8.51033236	      3.33430146	      0.05819454	    -29.42637478	     -1.23690791	     -7.33050075	     31.98238566	     -1.29345207	     -0.75197243	      7.35460345	      0.12836205	    -19.11209109	      1.38595906	     -7.33050075	     -6.47434896	      4.75172044	     -7.37721380	    -59.91627863	    -34.70303563	    -80.91715057	     69.88262810	    112.12907611	    -89.31395424	    -40.11734694	   -118.05834743	     48.39345964	    109.35474658
      1.26000000	    -19.01831280	     -1.30494282	      3.34601489	     -0.50225990	      1.45507690	     -0.56123854	     28.73610123	      0.40563732	     -8.68035331	      3.36029650	      0.05864824	    -28.98102019	     -0.72010660	     -7.34954757	     32.41403812	     -1.56131843	     -0.66230140	      6.95179993	      0.12133180	    -19.27919755	      1.63048190	     -7.34954757	     -6.80000916	      4.89250810	     -7.32065786	    -61.60773368	    -33.52887113	    -81.64634424	     66.81922103	    111.08126175	    -90.34811543	    -36.56657184	   -117.08709370	     47.30485243	    108.07636313
      1.27000000	    -18.93283579	     -1.42881033	      3.11240913	     -0.49365884	      1.43795807	     -0.56115794	     29.19164935	      0.45811033	     -8.91585444	      3.50314094	      0.06114134	    -28.34848233	     -0.44825110	     -7.35687907	     32.73149185	     -1.83020494	     -0.82785458	      6.73183751	      0.11749273	    -19.27345315	      2.13405145	     -7.35687907	     -7.29939476	      5.08872451	     -6.83079701	    -63.55221153	    -31.77182341	    -82.51031268	     64.03551931	    109.57485023	    -90.82945727	    -33.54278079	   -115.98389594	     47.01721331	    106.83797859
      1.28000000	    -18.77591468	     -1.50141527	      2.89732334	     -0.48508830	      1.42006137	     -0.56108807	     29.57512691	      0.43050343	     -9.25285896	      3.73991428	      0.06527382	    -27.47941620	     -0.47294634	     -7.37036664	     33.00924950	     -2.04492932	     -1.02870986	      6.63303984	      0.11576838	    -19.25552550	      2.52193927	     -7.37036664	     -7.87192695	      5.19011963	     -6.34231725	    -65.32677474	    -29.87564012	    -82.89663681	     61.32331833	    107.16811722	    -91.54839362	    -30.37262604	   -113.38879327	     46.81381031	    104.62086573
